<?xml version="1.0" standalone="no"?>
<!DOCTYPE svg PUBLIC "-//W3C//DTD SVG 20010904//EN"
 "http://www.w3.org/TR/2001/REC-SVG-20010904/DTD/svg10.dtd">
<svg version="1.0" xmlns="http://www.w3.org/2000/svg"
 width="225.000000pt" height="225.000000pt" viewBox="0 0 225.000000 225.000000"
 preserveAspectRatio="xMidYMid meet">
<metadata>
Created by potrace 1.16, written by Peter Selinger 2001-2019
</metadata>
<g transform="translate(0.000000,225.000000) scale(0.100000,-0.100000)"
fill="#000000" stroke="none">
<path d="M350 2208 c0 -24 4 -106 10 -183 5 -77 12 -215 15 -308 4 -92 8 -209
11 -260 8 -196 4 -640 -7 -654 -13 -15 -39 -17 -39 -3 0 6 -6 10 -14 10 -17 0
-51 79 -61 140 -17 111 -35 162 -90 260 -51 90 -131 320 -145 416 -5 38 -10
103 -11 144 0 41 -4 84 -9 95 -5 12 -9 -197 -9 -492 l-1 -511 45 -26 c89 -53
154 -142 155 -213 0 -28 -5 -34 -42 -51 -52 -24 -91 -60 -129 -120 l-29 -46 0
-203 0 -203 558 0 557 0 -1 57 c0 49 -3 58 -25 71 -39 25 -89 75 -83 84 3 5 2
7 -3 6 -15 -5 -261 242 -308 307 -43 61 -138 225 -129 225 3 0 0 9 -6 19 -7
14 -6 27 5 48 21 40 20 43 -27 44 -38 0 -40 1 -19 10 14 5 30 8 37 5 7 -3 15
-2 19 2 4 4 11 8 16 8 5 1 14 2 19 3 6 0 10 6 10 12 0 6 -6 9 -13 6 -8 -3 -29
-2 -48 3 -34 8 -34 8 11 9 47 1 56 -3 79 -32 13 -17 12 -21 -15 -42 -21 -18
-25 -24 -12 -25 9 0 18 6 21 13 3 8 10 6 21 -8 8 -11 16 -15 16 -10 0 6 -5 16
-12 23 -9 9 -9 12 1 12 6 0 17 -14 23 -31 10 -30 10 -30 25 -9 8 12 21 19 29
16 8 -3 14 1 14 9 0 7 5 17 12 21 8 5 9 2 5 -9 -8 -20 4 -22 22 -5 11 10 13
10 7 1 -4 -8 -1 -13 8 -13 9 0 16 -6 16 -14 0 -7 8 -20 17 -27 15 -12 16 -12
10 4 -10 27 -5 21 42 -43 24 -33 46 -58 49 -55 3 3 -3 14 -13 25 -10 11 -13
20 -7 20 7 0 9 7 5 17 -4 11 -3 14 5 9 8 -5 10 -2 6 8 -3 9 -1 16 5 16 6 0 11
-16 11 -36 0 -32 2 -35 23 -30 12 3 16 3 10 0 -23 -10 -13 -25 12 -18 14 3 25
2 25 -4 0 -16 62 -82 77 -82 16 0 17 -22 1 -38 -9 -9 -9 -12 0 -12 7 0 12 4
12 9 0 5 17 15 38 22 49 16 82 38 82 55 0 8 9 14 20 14 11 0 20 5 20 10 0 6 9
10 20 10 29 0 25 19 -7 31 -16 6 -36 15 -45 20 -10 5 -25 9 -33 9 -8 0 -15 4
-15 8 0 5 -18 15 -40 22 -22 7 -40 17 -40 22 0 4 -6 8 -14 8 -7 0 -32 24 -56
54 -23 30 -46 56 -52 58 -29 10 -13 128 17 128 14 0 116 40 128 50 5 4 -3 30
-17 58 -14 27 -22 52 -19 56 3 3 1 12 -5 19 -15 18 16 87 39 87 10 0 20 6 23
13 3 9 8 8 18 -4 10 -12 35 -15 118 -15 93 1 107 -1 122 -19 15 -17 17 -17 18
-4 0 9 7 19 15 23 22 8 19 26 -4 26 -11 0 -23 5 -26 10 -3 6 4 10 17 10 l23 1
-24 19 c-14 12 -18 20 -10 20 11 0 11 2 -1 10 -13 9 -13 10 0 10 12 0 13 2 1
9 -11 7 -11 9 0 13 42 14 -80 79 -156 83 -27 2 -58 4 -67 4 -11 1 -15 6 -12
16 17 44 -69 -6 -93 -54 -10 -20 -26 -46 -37 -58 -17 -21 -18 -23 -3 -23 25 0
21 -13 -8 -27 -16 -7 -23 -7 -18 -1 3 7 1 8 -5 4 -7 -4 -12 -13 -12 -19 0 -7
-23 -28 -51 -49 -39 -28 -64 -38 -109 -43 -94 -11 -158 4 -209 49 -13 11 -21
16 -18 10 4 -6 -5 -16 -19 -23 -23 -10 -29 -9 -50 14 -13 14 -29 25 -36 25 -7
0 -19 9 -26 20 -7 11 -19 20 -26 20 -21 0 -46 28 -46 51 0 14 7 19 26 19 20 0
25 4 20 16 -3 9 -6 21 -7 27 -1 7 -5 1 -9 -13 l-8 -25 -1 27 c-1 14 -6 28 -12
30 -9 3 -9 10 1 27 10 19 14 21 22 10 6 -10 7 -7 2 10 -3 13 -19 35 -35 49
-16 13 -29 28 -29 32 0 5 11 -2 25 -15 24 -25 65 -34 65 -15 0 6 3 9 8 9 22
-4 27 4 24 41 -3 30 3 52 29 97 18 32 41 64 50 71 10 7 25 19 33 27 8 8 17 15
21 15 11 0 37 29 39 44 1 7 13 27 26 44 14 18 35 45 48 61 12 16 35 32 51 36
16 3 38 17 51 30 12 12 49 36 83 51 80 36 199 43 302 19 39 -9 99 -23 135 -31
36 -8 83 -23 105 -33 22 -11 58 -22 80 -26 22 -4 47 -13 55 -20 8 -7 26 -16
39 -20 12 -4 38 -17 57 -29 18 -11 54 -34 79 -49 56 -36 99 -97 131 -187 24
-70 34 -190 15 -190 -17 0 -4 -83 23 -149 26 -61 27 -80 10 -143 -3 -10 -15
-18 -26 -18 -12 0 -18 -3 -15 -7 4 -3 -1 -15 -10 -26 -17 -18 -17 -19 0 -32 9
-6 17 -15 17 -18 0 -9 -63 -27 -69 -19 -3 4 -19 8 -35 9 -37 1 -46 12 -39 46
4 21 10 27 24 24 28 -7 12 20 -19 33 -19 7 -21 9 -5 6 19 -3 20 -1 11 25 -5
16 -14 29 -19 29 -5 0 -9 12 -9 27 0 14 -3 23 -6 20 -4 -4 -6 -46 -5 -95 2
-97 -13 -210 -34 -258 -8 -16 -26 -68 -41 -115 -32 -103 -59 -157 -93 -187
-36 -33 -109 -65 -132 -59 -15 4 -26 -5 -46 -36 -14 -23 -35 -55 -46 -71 -14
-20 -17 -31 -9 -34 15 -5 16 -32 1 -32 -5 0 -7 5 -3 12 4 7 3 8 -4 4 -12 -7
-5 -36 9 -36 5 0 9 -5 9 -11 0 -6 -7 -9 -15 -5 -9 3 -15 0 -15 -9 0 -8 5 -15
10 -15 6 0 10 -9 10 -19 0 -11 4 -22 9 -25 13 -8 14 -176 1 -176 -13 0 -13
-33 1 -47 6 -6 8 -17 4 -24 -6 -8 -12 -4 -22 15 -14 26 -33 35 -33 15 0 -5 4
-8 9 -5 5 3 14 -6 19 -22 5 -15 14 -36 18 -47 7 -18 6 -18 -9 -6 -9 7 -15 17
-12 21 3 5 1 11 -5 15 -15 9 -12 -7 6 -44 18 -35 10 -58 -9 -26 -6 11 -12 22
-13 25 0 3 -5 16 -11 30 -6 14 -14 45 -18 70 -4 25 -12 51 -17 57 -15 19 -30
5 -18 -17 5 -10 10 -37 10 -59 0 -34 14 -78 50 -151 6 -13 48 -15 269 -18
l261 -2 0 28 c0 23 -8 33 -35 48 -31 16 -35 23 -35 59 0 22 5 69 10 105 25
164 58 233 133 278 109 66 147 82 204 87 32 4 68 8 81 11 l22 4 0 815 0 815
-950 0 -950 0 0 -42z"/>
<path d="M1501 1959 c-40 -54 -71 -130 -58 -144 13 -14 81 -12 121 4 17 7 33
8 40 3 6 -5 24 -12 40 -16 16 -4 41 -16 54 -27 30 -23 50 -25 27 -3 -9 9 -13
24 -10 35 5 14 1 19 -14 19 -12 0 -21 5 -21 10 0 6 -9 10 -19 10 -11 0 -23 9
-26 20 -3 11 -15 25 -26 30 -10 6 -19 17 -19 24 0 16 -30 50 -51 58 -11 4 -24
-4 -38 -23z"/>
<path d="M650 1777 c0 -4 5 -16 12 -26 9 -15 9 -26 0 -46 -11 -23 -10 -32 4
-54 11 -15 19 -21 22 -13 7 23 24 12 19 -13 -6 -33 21 -48 85 -49 59 -2 71
-13 23 -22 -26 -5 -33 -9 -23 -15 7 -5 25 -6 41 -3 32 7 37 -11 5 -20 -75 -20
-127 0 -171 64 -11 16 -17 19 -17 9 0 -25 85 -99 114 -99 15 0 29 -7 33 -16 3
-9 15 -20 27 -24 20 -8 20 -9 -4 -10 -19 -2 -15 -5 20 -16 45 -14 45 -14 73
16 31 34 31 34 16 -8 -6 -17 -17 -33 -25 -36 -9 -3 -12 -11 -8 -18 5 -8 2 -9
-9 -5 -10 3 -17 3 -17 -2 0 -5 12 -12 26 -15 28 -7 64 16 64 41 0 7 4 13 8 13
12 0 63 120 56 131 -8 14 -22 1 -44 -39 -10 -20 -19 -31 -20 -24 0 7 -4 10
-10 7 -11 -7 -14 28 -3 39 4 4 9 18 10 32 2 14 12 39 23 56 10 17 17 35 14 40
-10 15 -25 8 -34 -17 -10 -26 -30 -34 -30 -12 0 6 -5 4 -11 -6 -6 -9 -14 -15
-18 -13 -10 6 -1 -66 10 -80 16 -20 -3 -22 -25 -3 -22 19 -37 57 -50 119 -3
17 -12 26 -26 27 -11 1 -18 -2 -15 -8 4 -5 1 -9 -4 -9 -6 0 -11 5 -11 10 0 6
-4 10 -9 10 -5 0 -34 26 -65 58 -31 31 -56 54 -56 49z"/>
<path d="M1588 1367 c-25 -21 -26 -23 -10 -35 15 -10 13 -11 -10 -6 -26 6 -28
4 -28 -23 0 -17 6 -30 13 -31 19 -1 91 -11 97 -12 21 -7 75 5 90 20 34 34 34
57 1 74 -17 9 -37 16 -46 16 -8 0 -15 5 -15 10 0 19 -65 10 -92 -13z"/>
<path d="M1365 967 c-77 -23 -83 -38 -27 -66 52 -27 104 -39 127 -31 15 5 8 9
-28 14 -26 4 -45 11 -42 16 3 4 -1 11 -7 14 -7 3 19 3 57 0 39 -3 75 -10 81
-15 14 -12 46 0 41 14 -2 6 -19 13 -38 15 -40 4 -65 22 -31 22 12 0 22 5 22
10 0 6 -10 10 -22 10 -13 0 -39 2 -58 5 -19 2 -53 -1 -75 -8z"/>
<path d="M997 634 c-9 -15 255 -324 277 -324 3 0 15 19 25 43 20 43 38 127 27
127 -3 0 -22 -25 -43 -55 -34 -53 -60 -67 -57 -32 1 9 -3 15 -8 14 -6 -1 -16
13 -22 32 -7 19 -19 38 -27 41 -47 22 -74 41 -71 50 1 5 -2 10 -8 10 -5 0 -7
8 -4 18 5 14 4 14 -5 2 -8 -12 -14 -10 -36 15 -15 17 -30 39 -34 49 -4 11 -10
15 -14 10z"/>
</g>
</svg>
